<svg xmlns="http://www.w3.org/2000/svg" xmlns:xlink="http://www.w3.org/1999/xlink" xmlns:lucid="lucid" width="1935.19" height="1247.27"><g transform="translate(-100 -20)" lucid:page-tab-id="vs4E-8TYN364"><path d="M180 133c0-4.42 3.58-8 8-8h164c4.42 0 8 3.58 8 8v104c0 4.42-3.58 8-8 8H188c-4.42 0-8-3.58-8-8z" stroke="#ffca73" stroke-width="4" fill="#fff"/><use xlink:href="#a" transform="matrix(1,0,0,1,192,137) translate(29.56265432098766 54.511111111111106)"/><path d="M120 87.27V48c0-4.42 3.58-8 8-8h312v47.27zM440 40h580v47.27H440zM1020 40h752c4.42 0 8 3.58 8 8v39.27h-760z" stroke="#ffca73" stroke-width="3" fill="#fff"/><path d="M440 1247.27H128c-4.42 0-8-3.6-8-8v-1152h320zM440 87.27h580v1160H440zM1780 87.27v1152c0 4.4-3.58 8-8 8h-752v-1160z" stroke="#ffca73" stroke-width="3" fill="none"/><use xlink:href="#b" transform="matrix(1,0,0,1,120,40) translate(61.48209876543211 29.37777777777778)"/><use xlink:href="#c" transform="matrix(1,0,0,1,120,40) translate(167.46913580246917 29.37777777777778)"/><use xlink:href="#d" transform="matrix(1,0,0,1,120,40) translate(192.8641975308642 29.37777777777778)"/><use xlink:href="#e" transform="matrix(1,0,0,1,439.9999999999999,40) translate(213.8895061728395 29.377777777777776)"/><use xlink:href="#f" transform="matrix(1,0,0,1,439.9999999999999,40) translate(290.07469135802467 29.377777777777776)"/><use xlink:href="#g" transform="matrix(1,0,0,1,1019.9999999999999,40) translate(235.73364197530867 29.377777777777776)"/><use xlink:href="#h" transform="matrix(1,0,0,1,1019.9999999999999,40) translate(313.9354938271605 29.377777777777776)"/><use xlink:href="#i" transform="matrix(1,0,0,1,1019.9999999999999,40) translate(421.3416666666667 29.377777777777776)"/><use xlink:href="#j" transform="matrix(1,0,0,1,1019.9999999999999,40) translate(446.73672839506173 29.377777777777776)"/><path d="M363.5 185h113.88" stroke="#6db1ff" stroke-width="3" fill="none"/><path d="M363.54 186.5H362v-3h1.54z" fill="#6db1ff"/><path d="M493.15 185l-14.27 4.64v-9.28z" stroke="#6db1ff" stroke-width="3" fill="#6db1ff"/><path d="M878 140c23.2 0 42 20.15 42 45s-18.8 45-42 45H542c-23.2 0-42-20.15-42-45s18.8-45 42-45z" stroke="#ffca73" stroke-width="4" fill="#fff"/><path d="M878 230c-23.2 0-42-20.15-42-45s18.8-45 42-45" stroke="#ffca73" stroke-width="4" fill="none"/><use xlink:href="#k" transform="matrix(1,0,0,1,504.9999999999999,145) translate(63.06296296296303 46.511111111111106)"/><path d="M1680 145c33.14 0 60 17.9 60 40s-26.86 40-60 40h-180c-33.14 0-60-17.9-60-40s26.86-40 60-40z" stroke="#ffca73" stroke-width="4" fill="#fff"/><use xlink:href="#l" transform="matrix(1,0,0,1,1445,150) translate(45.80987654320987 41.198611111111106)"/><path d="M1294 300c30.93 0 56 17.9 56 40s-25.07 40-56 40h-168c-30.93 0-56-17.9-56-40s25.07-40 56-40z" stroke="#ffca73" stroke-width="4" fill="#fff"/><use xlink:href="#m" transform="matrix(1,0,0,1,1075,305) translate(20.946296296296282 41.198611111111106)"/><path d="M1680 295c33.14 0 60 17.9 60 40s-26.86 40-60 40h-180c-33.14 0-60-17.9-60-40s26.86-40 60-40z" stroke="#ffca73" stroke-width="4" fill="#fff"/><use xlink:href="#n" transform="matrix(1,0,0,1,1445,300) translate(30.946296296296282 41.198611111111106)"/><path d="M878 285c23.2 0 42 20.15 42 45s-18.8 45-42 45H542c-23.2 0-42-20.15-42-45s18.8-45 42-45z" stroke="#ffca73" stroke-width="4" fill="#fff"/><path d="M878 375c-23.2 0-42-20.15-42-45s18.8-45 42-45" stroke="#ffca73" stroke-width="4" fill="none"/><use xlink:href="#o" transform="matrix(1,0,0,1,504.99999999999983,290) translate(40.692901234567884 46.511111111111106)"/><path d="M878 400c23.2 0 42 20.15 42 45s-18.8 45-42 45H542c-23.2 0-42-20.15-42-45s18.8-45 42-45z" stroke="#ffca73" stroke-width="4" fill="#fff"/><path d="M878 490c-23.2 0-42-20.15-42-45s18.8-45 42-45" stroke="#ffca73" stroke-width="4" fill="none"/><use xlink:href="#p" transform="matrix(1,0,0,1,504.9999999999999,405) translate(40.692901234567884 46.511111111111106)"/><path d="M1680 570c33.14 0 60 17.9 60 40s-26.86 40-60 40h-180c-33.14 0-60-17.9-60-40s26.86-40 60-40z" stroke="#ffca73" stroke-width="4" fill="#fff"/><use xlink:href="#q" transform="matrix(1,0,0,1,1445,575) translate(11.563888888888869 41.198611111111106)"/><path d="M878 700c23.2 0 42 20.15 42 45s-18.8 45-42 45H542c-23.2 0-42-20.15-42-45s18.8-45 42-45z" stroke="#ffca73" stroke-width="4" fill="#fff"/><path d="M878 790c-23.2 0-42-20.15-42-45s18.8-45 42-45" stroke="#ffca73" stroke-width="4" fill="none"/><use xlink:href="#r" transform="matrix(1,0,0,1,504.99999999999983,705) translate(27.24845679012344 46.511111111111106)"/><use xlink:href="#s" transform="matrix(1,0,0,1,504.99999999999983,705) translate(251.02376543209877 46.511111111111106)"/><path d="M1436.5 610H1426l-4.15.54-1.92.8m-8.6 8.6l-.8 1.9-.53 4.16v6.12m0 12.25v12.25m0 12.25v12.25m0 12.25v12.25m0 12.24V724l-.54 4.14-.8 1.92m-8.6 8.6l-1.9.78-4.16.55h-5.94m-11.9 0h-11.88m-11.88 0h-11.9m-11.88 0h-11.88m-11.9 0h-11.87m-11.9 0h-11.88m-11.9 0h-11.88m-11.9 0h-11.87m-11.9 0h-11.88m-11.88 0h-11.9m-11.88 0h-11.9m-11.88 0h-11.88m-11.9 0h-11.88m-11.88 0H1079m-11.88 0h-11.88m-11.9 0h-11.87m-11.9 0h-11.88m-11.9 0h-11.88m-11.9 0h-11.87m-11.9 0h-5.93" stroke="#6db1ff" stroke-width="3" fill="none"/><path d="M1438 610l.05 1.5h-1.6v-3h1.6z" fill="#6db1ff"/><path d="M926.55 740l14.27-4.65v9.27z" stroke="#6db1ff" stroke-width="3" fill="#6db1ff"/><path d="M1680 840c33.14 0 60 17.9 60 40s-26.86 40-60 40h-180c-33.14 0-60-17.9-60-40s26.86-40 60-40z" stroke="#ffca73" stroke-width="4" fill="#fff"/><use xlink:href="#t" transform="matrix(1,0,0,1,1445,845) translate(15.938333333333313 25.521111111111104)"/><use xlink:href="#u" transform="matrix(1,0,0,1,1445,845) translate(101.47444444444446 57.78777777777776)"/><path d="M878 835c23.2 0 42 20.15 42 45s-18.8 45-42 45H542c-23.2 0-42-20.15-42-45s18.8-45 42-45z" stroke="#ffca73" stroke-width="4" fill="#fff"/><path d="M878 925c-23.2 0-42-20.15-42-45s18.8-45 42-45" stroke="#ffca73" stroke-width="4" fill="none"/><use xlink:href="#v" transform="matrix(1,0,0,1,504.99999999999983,840) translate(37.93833333333331 29.011111111111106)"/><use xlink:href="#w" transform="matrix(1,0,0,1,504.99999999999983,840) translate(118.53030864197532 61.277777777777764)"/><path d="M1436.5 880h-5.88m-11.76 0h-11.76m-11.76 0h-11.76m-11.76 0h-11.75m-11.76 0h-11.75m-11.76 0h-11.77m-11.76 0h-11.76m-11.75 0H1266m-11.77 0h-11.76m-11.75 0h-11.76m-11.76 0h-11.76m-11.76 0h-11.76m-11.76 0h-11.76m-11.76 0h-11.76m-11.75 0h-11.76m-11.76 0h-11.75m-11.76 0h-11.77m-11.76 0h-11.76m-11.75 0h-11.76m-11.76 0h-11.76m-11.76 0h-11.76m-11.76 0h-5.88" stroke="#6db1ff" stroke-width="3" fill="none"/><path d="M1438 880l.05 1.5h-1.6v-3h1.6z" fill="#6db1ff"/><path d="M926.85 880l14.27-4.64v9.28z" stroke="#6db1ff" stroke-width="3" fill="#6db1ff"/><path d="M180 963c0-4.42 3.58-8 8-8h164c4.42 0 8 3.58 8 8v104c0 4.42-3.58 8-8 8H188c-4.42 0-8-3.58-8-8z" stroke="#ffca73" stroke-width="4" fill="#fff"/><use xlink:href="#x" transform="matrix(1,0,0,1,192,967) translate(18.32160493827162 54.511111111111106)"/><path d="M180 1108c0-4.42 3.58-8 8-8h164c4.42 0 8 3.58 8 8v104c0 4.42-3.58 8-8 8H188c-4.42 0-8-3.58-8-8z" stroke="#ffca73" stroke-width="4" fill="#fff"/><use xlink:href="#y" transform="matrix(1,0,0,1,192,1112) translate(29.487962962962975 54.511111111111106)"/><path d="M1584 1130c53.02 0 96 17.9 96 40s-42.98 40-96 40h-288c-53.02 0-96-17.9-96-40s42.98-40 96-40z" stroke="#ffca73" stroke-width="4" fill="#fff"/><use xlink:href="#z" transform="matrix(1,0,0,1,1205,1135) translate(16.45808641975305 41.198611111111106)"/><path d="M878 970c23.2 0 42 20.15 42 45s-18.8 45-42 45H542c-23.2 0-42-20.15-42-45s18.8-45 42-45z" stroke="#ffca73" stroke-width="4" fill="#fff"/><path d="M878 1060c-23.2 0-42-20.15-42-45s18.8-45 42-45" stroke="#ffca73" stroke-width="4" fill="none"/><use xlink:href="#A" transform="matrix(1,0,0,1,504.9999999999999,975) translate(9.35987654320985 46.511111111111106)"/><path d="M363.5 1015h113.88" stroke="#6db1ff" stroke-width="3" fill="none"/><path d="M363.54 1016.5H362v-3h1.54z" fill="#6db1ff"/><path d="M493.15 1015l-14.27 4.64v-9.28z" stroke="#6db1ff" stroke-width="3" fill="#6db1ff"/><path d="M878 1125c23.2 0 42 20.15 42 45s-18.8 45-42 45H542c-23.2 0-42-20.15-42-45s18.8-45 42-45z" stroke="#ffca73" stroke-width="4" fill="#fff"/><path d="M878 1215c-23.2 0-42-20.15-42-45s18.8-45 42-45" stroke="#ffca73" stroke-width="4" fill="none"/><use xlink:href="#B" transform="matrix(1,0,0,1,504.99999999999983,1130) translate(61.13 29.011111111111106)"/><use xlink:href="#C" transform="matrix(1,0,0,1,504.99999999999983,1130) translate(51.308086419753074 61.277777777777764)"/><path d="M496.5 1170h-66.47c-.02 0-.03 0-.03.03 0 0 0 .02-.03.02h-47.35" stroke="#6db1ff" stroke-width="3" fill="none"/><path d="M498 1169.95v.88l.05.67h-1.6v-3h1.63z" fill="#6db1ff"/><path d="M366.85 1170.05l14.27-4.63v9.27z" stroke="#6db1ff" stroke-width="3" fill="#6db1ff"/><path d="M1196.5 1170h-5.77m-11.54 0h-11.55m-11.54 0h-11.53m-11.54 0h-11.54m-11.55 0h-11.54m-11.53 0h-11.54m-11.54 0h-11.55m-11.54 0h-11.53m-11.54 0h-11.54m-11.55 0H983m-11.53 0h-11.54m-11.54 0h-5.78" stroke="#6db1ff" stroke-width="3" fill="none"/><path d="M1198.03 1169l-.03.98v.2l.03.97.03.35h-1.6v-3h1.6z" fill="#6db1ff"/><path d="M926.85 1170l14.27-4.64v9.28z" stroke="#6db1ff" stroke-width="3" fill="#6db1ff"/><path d="M1294 145c30.93 0 56 17.9 56 40s-25.07 40-56 40h-168c-30.93 0-56-17.9-56-40s25.07-40 56-40z" stroke="#ffca73" stroke-width="3" fill="#fff"/><use xlink:href="#D" transform="matrix(1,0,0,1,1075,150) translate(35.80987654320987 41.198611111111106)"/><path d="M923.5 185H946c8.84 0 16-7.16 16-16v-50c0-8.84 7.16-16 16-16h596c8.84 0 16 7.16 16 16v3.38" stroke="#6db1ff" stroke-width="3" fill="none"/><path d="M923.54 186.5h-1.62l.08-1.45v-.88l-.05-.67h1.6z" fill="#6db1ff"/><path d="M1590 138.15l-4.64-14.27h9.28z" stroke="#6db1ff" stroke-width="3" fill="#6db1ff"/><path d="M1210 228v49.38" stroke="#6db1ff" stroke-width="3" fill="none"/><path d="M1211.5 228.04h-3v-1.54h3z" fill="#6db1ff"/><path d="M1210 293.15l-4.64-14.27h9.28z" stroke="#6db1ff" stroke-width="3" fill="#6db1ff"/><path d="M1590 228.5v43.88" stroke="#6db1ff" stroke-width="3" fill="none"/><path d="M1591.5 228.54h-3V227h3z" fill="#6db1ff"/><path d="M1590 288.15l-4.64-14.27h9.28z" stroke="#6db1ff" stroke-width="3" fill="#6db1ff"/><path d="M180 693c0-4.42 3.58-8 8-8h164c4.42 0 8 3.58 8 8v104c0 4.42-3.58 8-8 8H188c-4.42 0-8-3.58-8-8z" stroke="#ffca73" stroke-width="4" fill="#fff"/><use xlink:href="#x" transform="matrix(1,0,0,1,192,697) translate(18.32160493827162 54.511111111111106)"/><path d="M363.5 1015h113.88M363.54 1015H362" stroke="#6db1ff" stroke-width="3" fill="none"/><path d="M493.15 1015l-14.27 4.64v-9.28z" stroke="#6db1ff" stroke-width="3" fill="#6db1ff"/><path d="M497 745H380.5" stroke="#6db1ff" stroke-width="2" fill="none"/><path d="M498 744.95v.88l.02.17h-1.05v-2h1.08z" fill="#6db1ff"/><path d="M365.24 745l14.26-4.64v9.28z" stroke="#6db1ff" stroke-width="2" fill="#6db1ff"/><path d="M1300 975c33.14 0 60 17.9 60 40s-26.86 40-60 40h-180c-33.14 0-60-17.9-60-40s26.86-40 60-40z" stroke="#ffca73" stroke-width="4" fill="#fff"/><use xlink:href="#E" transform="matrix(1,0,0,1,1064.9999999999995,980) translate(21.23641975308641 41.198611111111106)"/><path d="M923.5 1015h113.88" stroke="#6db1ff" stroke-width="3" fill="none"/><path d="M923.54 1016.5h-1.62l.08-1.45v-.88l-.05-.67h1.6z" fill="#6db1ff"/><path d="M1053.14 1015l-14.26 4.64v-9.28z" stroke="#6db1ff" stroke-width="3" fill="#6db1ff"/><path d="M1436.5 335h-7.63m-15.25 0H1406l-4.15.54-1.92.8m-8.6 8.6l-.8 1.9-.53 4.16v6.5m0 13v13m0 13v13m0 13v6.5l-.54 4.15-.8 1.92m-8.6 8.6l-1.9.8-4.16.53h-6m-11.97 0h-12m-11.97 0h-11.98m-12 0h-11.97m-11.97 0h-11.98m-12 0h-11.97m-11.98 0h-11.98m-12 0h-11.97m-11.98 0h-12m-11.97 0h-11.98m-11.98 0h-12m-11.97 0h-11.98m-12 0h-11.98m-11.98 0h-11.98m-12 0h-11.97m-12 0h-11.97m-12 0h-11.97m-11.98 0h-12m-11.97 0h-5.98" stroke="#6db1ff" stroke-width="3" fill="none"/><path d="M1438 335l.05 1.5h-1.6v-3h1.6z" fill="#6db1ff"/><path d="M926.85 445l14.27-4.64v9.28z" stroke="#6db1ff" stroke-width="3" fill="#6db1ff"/><path d="M878 565c23.2 0 42 20.15 42 45s-18.8 45-42 45H542c-23.2 0-42-20.15-42-45s18.8-45 42-45z" stroke="#ffca73" stroke-width="4" fill="#fff"/><path d="M878 655c-23.2 0-42-20.15-42-45s18.8-45 42-45" stroke="#ffca73" stroke-width="4" fill="none"/><use xlink:href="#F" transform="matrix(1,0,0,1,504.99999999999983,570) translate(40.73024691358023 46.511111111111106)"/><use xlink:href="#s" transform="matrix(1,0,0,1,504.99999999999983,570) translate(237.54197530864198 46.511111111111106)"/><path d="M1300 570c33.14 0 60 17.9 60 40s-26.86 40-60 40h-180c-33.14 0-60-17.9-60-40s26.86-40 60-40z" stroke="#ffca73" stroke-width="4" fill="#fff"/><use xlink:href="#G" transform="matrix(1,0,0,1,1065,575) translate(25.04567901234566 41.198611111111106)"/><path d="M1056.5 610h-5.7m-11.38 0h-11.4m-11.38 0h-11.4m-11.37 0h-11.4m-11.38 0h-11.4m-11.4 0h-5.68" stroke="#6db1ff" stroke-width="3" fill="none"/><path d="M1058 610l.05 1.5h-1.6v-3h1.6z" fill="#6db1ff"/><path d="M926.85 610l14.27-4.64v9.28z" stroke="#6db1ff" stroke-width="3" fill="#6db1ff"/><path d="M1210 383v166.5" stroke="#6db1ff" stroke-width="2" fill="none"/><path d="M1211 383.03h-2V382h2z" fill="#6db1ff"/><path d="M1210 564.76l-4.64-14.26h9.28z" stroke="#6db1ff" stroke-width="2" fill="#6db1ff"/><path d="M1590 653.5v163.88" stroke="#6db1ff" stroke-width="3" fill="none"/><path d="M1591.5 653.54h-3V652h3z" fill="#6db1ff"/><path d="M1590 833.15l-4.64-14.27h9.28z" stroke="#6db1ff" stroke-width="3" fill="#6db1ff"/><path d="M1590 923.5v80.5c0 8.84-7.16 16-16 16h-118c-8.84 0-16 7.16-16 16v71.38" stroke="#6db1ff" stroke-width="3" fill="none"/><path d="M1591.5 923.54h-3V922h3z" fill="#6db1ff"/><path d="M1440 1123.15l-4.64-14.27h9.28z" stroke="#6db1ff" stroke-width="3" fill="#6db1ff"/><path d="M1363.5 1015h50.5c8.84 0 16 7.16 16 16v76.38" stroke="#6db1ff" stroke-width="3" fill="none"/><path d="M1363.54 1016.5h-1.6l.06-1.5-.05-1.5h1.6z" fill="#6db1ff"/><path d="M1430 1123.15l-4.63-14.27h9.27z" stroke="#6db1ff" stroke-width="3" fill="#6db1ff"/><path d="M1210 383.5V459c0 8.84 7.16 16 16 16h348c8.84 0 16 7.16 16 16v56.38" stroke="#6db1ff" stroke-width="3" fill="none"/><path d="M1211.5 383.54h-3V382h3z" fill="#6db1ff"/><path d="M1590 563.15l-4.64-14.27h9.28z" stroke="#6db1ff" stroke-width="3" fill="#6db1ff"/><path d="M1590 378.5v168.88" stroke="#6db1ff" stroke-width="3" fill="none"/><path d="M1591.5 378.54h-3V377h3z" fill="#6db1ff"/><path d="M1590 563.15l-4.64-14.27h9.28z" stroke="#6db1ff" stroke-width="3" fill="#6db1ff"/><path d="M1590 378.5v78c0 8.84-7.16 16-16 16h-348c-8.84 0-16 7.16-16 16v58.88" stroke="#6db1ff" stroke-width="3" fill="none"/><path d="M1591.5 378.54h-3V377h3z" fill="#6db1ff"/><path d="M1210 563.15l-4.64-14.27h9.28z" stroke="#6db1ff" stroke-width="3" fill="#6db1ff"/><path d="M923.5 185h124.38" stroke="#6db1ff" stroke-width="3" fill="none"/><path d="M923.54 186.5h-1.62l.08-1.45v-.88l-.05-.67h1.6z" fill="#6db1ff"/><path d="M1063.65 185l-14.27 4.64v-9.28z" stroke="#6db1ff" stroke-width="3" fill="#6db1ff"/><path d="M1066.5 340h-6m-12 0h-12m-12 0h-12.02m-12 0H987.86m-13.22 0H961.4m-13.2 0h-6.62" stroke="#6db1ff" stroke-width="3" fill="none"/><path d="M1068 339.98l.04 1.52h-1.58v-3h1.6z" fill="#6db1ff"/><path d="M925.8 340l14.28-4.64v9.28z" stroke="#6db1ff" stroke-width="3" fill="#6db1ff"/><defs><path fill="#5e5139" d="M197 0v-115H63V0H30v-248h33v105h134v-105h34V0h-34" id="H"/><path fill="#5e5139" d="M24-231v-30h32v30H24zM24 0v-190h32V0H24" id="I"/><path fill="#5e5139" d="M108 0H70L1-190h34L89-25l56-165h34" id="J"/><path fill="#5e5139" d="M100-194c63 0 86 42 84 106H49c0 40 14 67 53 68 26 1 43-12 49-29l28 8c-11 28-37 45-77 45C44 4 14-33 15-96c1-61 26-98 85-98zm52 81c6-60-76-77-97-28-3 7-6 17-6 28h103" id="K"/><path fill="#5e5139" d="M240 0l2-218c-23 76-54 145-80 218h-23L58-218 59 0H30v-248h44l77 211c21-75 51-140 76-211h43V0h-30" id="L"/><path fill="#5e5139" d="M140-251c81 0 123 46 123 126C263-53 228-8 163 1c7 30 30 48 69 40v23c-55 16-95-15-103-61C56-3 17-48 17-125c0-80 42-126 123-126zm0 227c63 0 89-41 89-101s-29-99-89-99c-61 0-89 39-89 99S79-25 140-24" id="M"/><g id="a"><use transform="matrix(0.07469135802469135,0,0,0.07469135802469135,0,0)" xlink:href="#H"/><use transform="matrix(0.07469135802469135,0,0,0.07469135802469135,19.34506172839506,0)" xlink:href="#I"/><use transform="matrix(0.07469135802469135,0,0,0.07469135802469135,25.245679012345676,0)" xlink:href="#J"/><use transform="matrix(0.07469135802469135,0,0,0.07469135802469135,38.69012345679012,0)" xlink:href="#K"/><use transform="matrix(0.07469135802469135,0,0,0.07469135802469135,53.62839506172838,0)" xlink:href="#L"/><use transform="matrix(0.07469135802469135,0,0,0.07469135802469135,75.9611111111111,0)" xlink:href="#M"/></g><path fill="#5e5139" d="M185-189c-5-48-123-54-124 2 14 75 158 14 163 119 3 78-121 87-175 55-17-10-28-26-33-46l33-7c5 56 141 63 141-1 0-78-155-14-162-118-5-82 145-84 179-34 5 7 8 16 11 25" id="N"/><path fill="#5e5139" d="M100-194c62-1 85 37 85 99 1 63-27 99-86 99S16-35 15-95c0-66 28-99 85-99zM99-20c44 1 53-31 53-75 0-43-8-75-51-75s-53 32-53 75 10 74 51 75" id="O"/><path fill="#5e5139" d="M84 4C-5 8 30-112 23-190h32v120c0 31 7 50 39 49 72-2 45-101 50-169h31l1 190h-30c-1-10 1-25-2-33-11 22-28 36-60 37" id="P"/><path fill="#5e5139" d="M114-163C36-179 61-72 57 0H25l-1-190h30c1 12-1 29 2 39 6-27 23-49 58-41v29" id="Q"/><path fill="#5e5139" d="M96-169c-40 0-48 33-48 73s9 75 48 75c24 0 41-14 43-38l32 2c-6 37-31 61-74 61-59 0-76-41-82-99-10-93 101-131 147-64 4 7 5 14 7 22l-32 3c-4-21-16-35-41-35" id="R"/><path fill="#5e5139" d="M135-143c-3-34-86-38-87 0 15 53 115 12 119 90S17 21 10-45l28-5c4 36 97 45 98 0-10-56-113-15-118-90-4-57 82-63 122-42 12 7 21 19 24 35" id="S"/><g id="b"><use transform="matrix(0.07469135802469136,0,0,0.07469135802469136,0,0)" xlink:href="#N"/><use transform="matrix(0.07469135802469136,0,0,0.07469135802469136,17.925925925925927,0)" xlink:href="#O"/><use transform="matrix(0.07469135802469136,0,0,0.07469135802469136,32.8641975308642,0)" xlink:href="#P"/><use transform="matrix(0.07469135802469136,0,0,0.07469135802469136,47.802469135802475,0)" xlink:href="#Q"/><use transform="matrix(0.07469135802469136,0,0,0.07469135802469136,56.69074074074075,0)" xlink:href="#R"/><use transform="matrix(0.07469135802469136,0,0,0.07469135802469136,70.1351851851852,0)" xlink:href="#K"/><use transform="matrix(0.07469135802469136,0,0,0.07469135802469136,85.07345679012346,0)" xlink:href="#S"/></g><path fill="#5e5139" d="M234-2c-28 10-62 0-77-18C117 19 8 12 13-65c3-43 29-61 60-76-25-40-17-114 47-108 35 3 59 15 59 50 0 44-40 53-71 69 14 26 32 50 51 72 14-21 24-43 30-72l26 8c-9 33-21 57-38 82 13 13 33 22 57 15v23zM97-151c25-10 52-18 56-48-1-18-13-29-33-29-42 0-39 50-23 77zM42-66c-3 51 71 58 98 28-20-24-41-51-56-80-23 10-40 24-42 52" id="T"/><use transform="matrix(0.07469135802469136,0,0,0.07469135802469136,0,0)" xlink:href="#T" id="c"/><path fill="#5e5139" d="M117-194c89-4 53 116 60 194h-32v-121c0-31-8-49-39-48C34-167 62-67 57 0H25l-1-190h30c1 10-1 24 2 32 11-22 29-35 61-36" id="U"/><path fill="#5e5139" d="M143 0L79-87 56-68V0H24v-261h32v163l83-92h37l-77 82L181 0h-38" id="V"/><g id="d"><use transform="matrix(0.07469135802469136,0,0,0.07469135802469136,0,0)" xlink:href="#N"/><use transform="matrix(0.07469135802469136,0,0,0.07469135802469136,17.925925925925927,0)" xlink:href="#I"/><use transform="matrix(0.07469135802469136,0,0,0.07469135802469136,23.826543209876544,0)" xlink:href="#U"/><use transform="matrix(0.07469135802469136,0,0,0.07469135802469136,38.76481481481481,0)" xlink:href="#V"/><use transform="matrix(0.07469135802469136,0,0,0.07469135802469136,52.209259259259255,0)" xlink:href="#S"/></g><path fill="#5e5139" d="M194 0L95-120 63-95V0H30v-248h33v124l119-124h40L117-140 236 0h-42" id="W"/><path fill="#5e5139" d="M141-36C126-15 110 5 73 4 37 3 15-17 15-53c-1-64 63-63 125-63 3-35-9-54-41-54-24 1-41 7-42 31l-33-3c5-37 33-52 76-52 45 0 72 20 72 64v82c-1 20 7 32 28 27v20c-31 9-61-2-59-35zM48-53c0 20 12 33 32 33 41-3 63-29 60-74-43 2-92-5-92 41" id="X"/><path fill="#5e5139" d="M101-234c-31-9-42 10-38 44h38v23H63V0H32v-167H5v-23h27c-7-52 17-82 69-68v24" id="Y"/><g id="e"><use transform="matrix(0.07469135802469135,0,0,0.07469135802469135,0,0)" xlink:href="#W"/><use transform="matrix(0.07469135802469135,0,0,0.07469135802469135,17.925925925925924,0)" xlink:href="#X"/><use transform="matrix(0.07469135802469135,0,0,0.07469135802469135,32.86419753086419,0)" xlink:href="#Y"/><use transform="matrix(0.07469135802469135,0,0,0.07469135802469135,40.33333333333332,0)" xlink:href="#V"/><use transform="matrix(0.07469135802469135,0,0,0.07469135802469135,53.77777777777776,0)" xlink:href="#X"/></g><path fill="#5e5139" d="M127-220V0H93v-220H8v-28h204v28h-85" id="Z"/><path fill="#5e5139" d="M115-194c55 1 70 41 70 98S169 2 115 4C84 4 66-9 55-30l1 105H24l-1-265h31l2 30c10-21 28-34 59-34zm-8 174c40 0 45-34 45-75s-6-73-45-74c-42 0-51 32-51 76 0 43 10 73 51 73" id="aa"/><g id="f"><use transform="matrix(0.07469135802469135,0,0,0.07469135802469135,0,0)" xlink:href="#Z"/><use transform="matrix(0.07469135802469135,0,0,0.07469135802469135,13.36975308641975,0)" xlink:href="#O"/><use transform="matrix(0.07469135802469135,0,0,0.07469135802469135,28.30802469135802,0)" xlink:href="#aa"/><use transform="matrix(0.07469135802469135,0,0,0.07469135802469135,43.2462962962963,0)" xlink:href="#I"/><use transform="matrix(0.07469135802469135,0,0,0.07469135802469135,49.14691358024692,0)" xlink:href="#R"/><use transform="matrix(0.07469135802469135,0,0,0.07469135802469135,62.59135802469135,0)" xlink:href="#S"/></g><path fill="#5e5139" d="M30 0v-248h33v221h125V0H30" id="ab"/><g id="g"><use transform="matrix(0.07469135802469135,0,0,0.07469135802469135,0,0)" xlink:href="#W"/><use transform="matrix(0.07469135802469135,0,0,0.07469135802469135,17.925925925925924,0)" xlink:href="#N"/><use transform="matrix(0.07469135802469135,0,0,0.07469135802469135,35.85185185185185,0)" xlink:href="#M"/><use transform="matrix(0.07469135802469135,0,0,0.07469135802469135,56.76543209876542,0)" xlink:href="#ab"/></g><path fill="#5e5139" d="M59-47c-2 24 18 29 38 22v24C64 9 27 4 27-40v-127H5v-23h24l9-43h21v43h35v23H59v120" id="ac"/><path fill="#5e5139" d="M210-169c-67 3-38 105-44 169h-31v-121c0-29-5-50-35-48C34-165 62-65 56 0H25l-1-190h30c1 10-1 24 2 32 10-44 99-50 107 0 11-21 27-35 58-36 85-2 47 119 55 194h-31v-121c0-29-5-49-35-48" id="ad"/><g id="h"><use transform="matrix(0.07469135802469135,0,0,0.07469135802469135,0,0)" xlink:href="#N"/><use transform="matrix(0.07469135802469135,0,0,0.07469135802469135,17.925925925925924,0)" xlink:href="#ac"/><use transform="matrix(0.07469135802469135,0,0,0.07469135802469135,25.395061728395056,0)" xlink:href="#Q"/><use transform="matrix(0.07469135802469135,0,0,0.07469135802469135,34.283333333333324,0)" xlink:href="#K"/><use transform="matrix(0.07469135802469135,0,0,0.07469135802469135,49.2216049382716,0)" xlink:href="#X"/><use transform="matrix(0.07469135802469135,0,0,0.07469135802469135,64.15987654320986,0)" xlink:href="#ad"/><use transform="matrix(0.07469135802469135,0,0,0.07469135802469135,86.49259259259257,0)" xlink:href="#S"/></g><use transform="matrix(0.07469135802469135,0,0,0.07469135802469135,0,0)" xlink:href="#T" id="i"/><path fill="#5e5139" d="M115-194c53 0 69 39 70 98 0 66-23 100-70 100C84 3 66-7 56-30L54 0H23l1-261h32v101c10-23 28-34 59-34zm-8 174c40 0 45-34 45-75 0-40-5-75-45-74-42 0-51 32-51 76 0 43 10 73 51 73" id="ae"/><path fill="#5e5139" d="M24 0v-261h32V0H24" id="af"/><g id="j"><use transform="matrix(0.07469135802469135,0,0,0.07469135802469135,0,0)" xlink:href="#Z"/><use transform="matrix(0.07469135802469135,0,0,0.07469135802469135,13.36975308641975,0)" xlink:href="#X"/><use transform="matrix(0.07469135802469135,0,0,0.07469135802469135,28.30802469135802,0)" xlink:href="#ae"/><use transform="matrix(0.07469135802469135,0,0,0.07469135802469135,43.2462962962963,0)" xlink:href="#af"/><use transform="matrix(0.07469135802469135,0,0,0.07469135802469135,49.14691358024692,0)" xlink:href="#K"/><use transform="matrix(0.07469135802469135,0,0,0.07469135802469135,64.08518518518518,0)" xlink:href="#S"/></g><path fill="#c92d39" d="M206 0h-36l-40-164L89 0H53L-1-190h32L70-26l43-164h34l41 164 42-164h31" id="ag"/><path fill="#c92d39" d="M141-36C126-15 110 5 73 4 37 3 15-17 15-53c-1-64 63-63 125-63 3-35-9-54-41-54-24 1-41 7-42 31l-33-3c5-37 33-52 76-52 45 0 72 20 72 64v82c-1 20 7 32 28 27v20c-31 9-61-2-59-35zM48-53c0 20 12 33 32 33 41-3 63-29 60-74-43 2-92-5-92 41" id="ah"/><path fill="#c92d39" d="M24 0v-261h32V0H24" id="ai"/><path fill="#c92d39" d="M115-194c53 0 69 39 70 98 0 66-23 100-70 100C84 3 66-7 56-30L54 0H23l1-261h32v101c10-23 28-34 59-34zm-8 174c40 0 45-34 45-75 0-40-5-75-45-74-42 0-51 32-51 76 0 43 10 73 51 73" id="aj"/><path fill="#c92d39" d="M100-194c62-1 85 37 85 99 1 63-27 99-86 99S16-35 15-95c0-66 28-99 85-99zM99-20c44 1 53-31 53-75 0-43-8-75-51-75s-53 32-53 75 10 74 51 75" id="ak"/><path fill="#c92d39" d="M141 0L90-78 38 0H4l68-98-65-92h35l48 74 47-74h35l-64 92 68 98h-35" id="al"/><path fill="#5e5139" d="M-5 72V49h209v23H-5" id="am"/><path fill="#0c7cba" d="M135-143c-3-34-86-38-87 0 15 53 115 12 119 90S17 21 10-45l28-5c4 36 97 45 98 0-10-56-113-15-118-90-4-57 82-63 122-42 12 7 21 19 24 35" id="an"/><path fill="#0c7cba" d="M100-194c62-1 85 37 85 99 1 63-27 99-86 99S16-35 15-95c0-66 28-99 85-99zM99-20c44 1 53-31 53-75 0-43-8-75-51-75s-53 32-53 75 10 74 51 75" id="ao"/><path fill="#0c7cba" d="M84 4C-5 8 30-112 23-190h32v120c0 31 7 50 39 49 72-2 45-101 50-169h31l1 190h-30c-1-10 1-25-2-33-11 22-28 36-60 37" id="ap"/><path fill="#0c7cba" d="M114-163C36-179 61-72 57 0H25l-1-190h30c1 12-1 29 2 39 6-27 23-49 58-41v29" id="aq"/><path fill="#0c7cba" d="M96-169c-40 0-48 33-48 73s9 75 48 75c24 0 41-14 43-38l32 2c-6 37-31 61-74 61-59 0-76-41-82-99-10-93 101-131 147-64 4 7 5 14 7 22l-32 3c-4-21-16-35-41-35" id="ar"/><path fill="#0c7cba" d="M100-194c63 0 86 42 84 106H49c0 40 14 67 53 68 26 1 43-12 49-29l28 8c-11 28-37 45-77 45C44 4 14-33 15-96c1-61 26-98 85-98zm52 81c6-60-76-77-97-28-3 7-6 17-6 28h103" id="as"/><g id="k"><use transform="matrix(0.07469135802469135,0,0,0.07469135802469135,0,0)" xlink:href="#ag"/><use transform="matrix(0.07469135802469135,0,0,0.07469135802469135,19.34506172839506,0)" xlink:href="#ah"/><use transform="matrix(0.07469135802469135,0,0,0.07469135802469135,34.28333333333333,0)" xlink:href="#ai"/><use transform="matrix(0.07469135802469135,0,0,0.07469135802469135,40.18395061728394,0)" xlink:href="#ai"/><use transform="matrix(0.07469135802469135,0,0,0.07469135802469135,46.08456790123456,0)" xlink:href="#aj"/><use transform="matrix(0.07469135802469135,0,0,0.07469135802469135,61.02283950617283,0)" xlink:href="#ak"/><use transform="matrix(0.07469135802469135,0,0,0.07469135802469135,75.9611111111111,0)" xlink:href="#al"/><use transform="matrix(0.07469135802469135,0,0,0.07469135802469135,89.40555555555554,0)" xlink:href="#am"/><use transform="matrix(0.07469135802469135,0,0,0.07469135802469135,104.34382716049382,0)" xlink:href="#am"/><use transform="matrix(0.0746913580246913,0,0,0.0746913580246913,119.28209876543207,0)" xlink:href="#an"/><use transform="matrix(0.0746913580246913,0,0,0.0746913580246913,132.7265432098765,0)" xlink:href="#ao"/><use transform="matrix(0.0746913580246913,0,0,0.0746913580246913,147.66481481481475,0)" xlink:href="#ap"/><use transform="matrix(0.0746913580246913,0,0,0.0746913580246913,162.603086419753,0)" xlink:href="#aq"/><use transform="matrix(0.0746913580246913,0,0,0.0746913580246913,171.49135802469127,0)" xlink:href="#ar"/><use transform="matrix(0.0746913580246913,0,0,0.0746913580246913,184.9358024691357,0)" xlink:href="#as"/></g><path fill="#7ab648" d="M108 0H70L1-190h34L89-25l56-165h34" id="at"/><path fill="#7ab648" d="M101-251c82-7 93 87 43 132L82-64C71-53 59-42 53-27h129V0H18c2-99 128-94 128-182 0-28-16-43-45-43s-46 15-49 41l-32-3c6-41 34-60 81-64" id="au"/><path fill="#0c7cba" d="M24-231v-30h32v30H24zM24 0v-190h32V0H24" id="av"/><path fill="#0c7cba" d="M85-194c31 0 48 13 60 33l-1-100h32l1 261h-30c-2-10 0-23-3-31C134-8 116 4 85 4 32 4 16-35 15-94c0-66 23-100 70-100zm9 24c-40 0-46 34-46 75 0 40 6 74 45 74 42 0 51-32 51-76 0-42-9-74-50-73" id="aw"/><g id="l"><use transform="matrix(0.07469135802469135,0,0,0.07469135802469135,0,0)" xlink:href="#ag"/><use transform="matrix(0.07469135802469135,0,0,0.07469135802469135,19.34506172839506,0)" xlink:href="#ah"/><use transform="matrix(0.07469135802469135,0,0,0.07469135802469135,34.28333333333333,0)" xlink:href="#ai"/><use transform="matrix(0.07469135802469135,0,0,0.07469135802469135,40.18395061728394,0)" xlink:href="#ai"/><use transform="matrix(0.07469135802469135,0,0,0.07469135802469135,46.08456790123456,0)" xlink:href="#aj"/><use transform="matrix(0.07469135802469135,0,0,0.07469135802469135,61.02283950617283,0)" xlink:href="#ak"/><use transform="matrix(0.07469135802469135,0,0,0.07469135802469135,75.9611111111111,0)" xlink:href="#al"/><use transform="matrix(0.07469135802469135,0,0,0.07469135802469135,89.40555555555554,0)" xlink:href="#am"/><use transform="matrix(0.07469135802469135,0,0,0.07469135802469135,104.34382716049382,0)" xlink:href="#am"/><use transform="matrix(0.07469135802469135,0,0,0.07469135802469135,119.28209876543207,0)" xlink:href="#at"/><use transform="matrix(0.07469135802469135,0,0,0.07469135802469135,132.72654320987652,0)" xlink:href="#au"/><use transform="matrix(0.07469135802469135,0,0,0.07469135802469135,147.6648148148148,0)" xlink:href="#am"/><use transform="matrix(0.07469135802469135,0,0,0.07469135802469135,162.60308641975308,0)" xlink:href="#am"/><use transform="matrix(0.07469135802469135,0,0,0.07469135802469135,177.54135802469136,0)" xlink:href="#av"/><use transform="matrix(0.07469135802469135,0,0,0.07469135802469135,183.441975308642,0)" xlink:href="#aw"/></g><path fill="#7ab648" d="M27 0v-27h64v-190l-56 39v-29l58-41h29v221h61V0H27" id="ax"/><path fill="#0c7cba" d="M101-234c-31-9-42 10-38 44h38v23H63V0H32v-167H5v-23h27c-7-52 17-82 69-68v24" id="ay"/><path fill="#0c7cba" d="M24 0v-261h32V0H24" id="az"/><path fill="#0c7cba" d="M59-47c-2 24 18 29 38 22v24C64 9 27 4 27-40v-127H5v-23h24l9-43h21v43h35v23H59v120" id="aA"/><g id="m"><use transform="matrix(0.07469135802469135,0,0,0.07469135802469135,0,0)" xlink:href="#ag"/><use transform="matrix(0.07469135802469135,0,0,0.07469135802469135,19.34506172839506,0)" xlink:href="#ah"/><use transform="matrix(0.07469135802469135,0,0,0.07469135802469135,34.28333333333333,0)" xlink:href="#ai"/><use transform="matrix(0.07469135802469135,0,0,0.07469135802469135,40.18395061728394,0)" xlink:href="#ai"/><use transform="matrix(0.07469135802469135,0,0,0.07469135802469135,46.08456790123456,0)" xlink:href="#aj"/><use transform="matrix(0.07469135802469135,0,0,0.07469135802469135,61.02283950617283,0)" xlink:href="#ak"/><use transform="matrix(0.07469135802469135,0,0,0.07469135802469135,75.9611111111111,0)" xlink:href="#al"/><use transform="matrix(0.07469135802469135,0,0,0.07469135802469135,89.40555555555554,0)" xlink:href="#am"/><use transform="matrix(0.07469135802469135,0,0,0.07469135802469135,104.34382716049382,0)" xlink:href="#am"/><use transform="matrix(0.07469135802469135,0,0,0.07469135802469135,119.28209876543207,0)" xlink:href="#at"/><use transform="matrix(0.07469135802469135,0,0,0.07469135802469135,132.72654320987652,0)" xlink:href="#ax"/><use transform="matrix(0.07469135802469135,0,0,0.07469135802469135,147.6648148148148,0)" xlink:href="#am"/><use transform="matrix(0.07469135802469135,0,0,0.07469135802469135,162.60308641975308,0)" xlink:href="#am"/><use transform="matrix(0.07469135802469135,0,0,0.07469135802469135,177.54135802469136,0)" xlink:href="#ay"/><use transform="matrix(0.07469135802469135,0,0,0.07469135802469135,185.0104938271605,0)" xlink:href="#av"/><use transform="matrix(0.07469135802469135,0,0,0.07469135802469135,190.91111111111113,0)" xlink:href="#az"/><use transform="matrix(0.07469135802469135,0,0,0.07469135802469135,196.81172839506178,0)" xlink:href="#aA"/><use transform="matrix(0.07469135802469135,0,0,0.07469135802469135,204.2808641975309,0)" xlink:href="#as"/><use transform="matrix(0.07469135802469135,0,0,0.07469135802469135,219.21913580246917,0)" xlink:href="#aq"/></g><g id="n"><use transform="matrix(0.07469135802469135,0,0,0.07469135802469135,0,0)" xlink:href="#ag"/><use transform="matrix(0.07469135802469135,0,0,0.07469135802469135,19.34506172839506,0)" xlink:href="#ah"/><use transform="matrix(0.07469135802469135,0,0,0.07469135802469135,34.28333333333333,0)" xlink:href="#ai"/><use transform="matrix(0.07469135802469135,0,0,0.07469135802469135,40.18395061728394,0)" xlink:href="#ai"/><use transform="matrix(0.07469135802469135,0,0,0.07469135802469135,46.08456790123456,0)" xlink:href="#aj"/><use transform="matrix(0.07469135802469135,0,0,0.07469135802469135,61.02283950617283,0)" xlink:href="#ak"/><use transform="matrix(0.07469135802469135,0,0,0.07469135802469135,75.9611111111111,0)" xlink:href="#al"/><use transform="matrix(0.07469135802469135,0,0,0.07469135802469135,89.40555555555554,0)" xlink:href="#am"/><use transform="matrix(0.07469135802469135,0,0,0.07469135802469135,104.34382716049382,0)" xlink:href="#am"/><use transform="matrix(0.07469135802469135,0,0,0.07469135802469135,119.28209876543207,0)" xlink:href="#at"/><use transform="matrix(0.07469135802469135,0,0,0.07469135802469135,132.72654320987652,0)" xlink:href="#au"/><use transform="matrix(0.07469135802469135,0,0,0.07469135802469135,147.6648148148148,0)" xlink:href="#am"/><use transform="matrix(0.07469135802469135,0,0,0.07469135802469135,162.60308641975308,0)" xlink:href="#am"/><use transform="matrix(0.07469135802469135,0,0,0.07469135802469135,177.54135802469136,0)" xlink:href="#ay"/><use transform="matrix(0.07469135802469135,0,0,0.07469135802469135,185.0104938271605,0)" xlink:href="#av"/><use transform="matrix(0.07469135802469135,0,0,0.07469135802469135,190.91111111111113,0)" xlink:href="#az"/><use transform="matrix(0.07469135802469135,0,0,0.07469135802469135,196.81172839506178,0)" xlink:href="#aA"/><use transform="matrix(0.07469135802469135,0,0,0.07469135802469135,204.2808641975309,0)" xlink:href="#as"/><use transform="matrix(0.07469135802469135,0,0,0.07469135802469135,219.21913580246917,0)" xlink:href="#aq"/></g><path fill="#0c7cba" d="M117-194c89-4 53 116 60 194h-32v-121c0-31-8-49-39-48C34-167 62-67 57 0H25l-1-190h30c1 10-1 24 2 32 11-22 29-35 61-36" id="aB"/><g id="o"><use transform="matrix(0.07469135802469135,0,0,0.07469135802469135,0,0)" xlink:href="#ag"/><use transform="matrix(0.07469135802469135,0,0,0.07469135802469135,19.34506172839506,0)" xlink:href="#ah"/><use transform="matrix(0.07469135802469135,0,0,0.07469135802469135,34.28333333333333,0)" xlink:href="#ai"/><use transform="matrix(0.07469135802469135,0,0,0.07469135802469135,40.18395061728394,0)" xlink:href="#ai"/><use transform="matrix(0.07469135802469135,0,0,0.07469135802469135,46.08456790123456,0)" xlink:href="#aj"/><use transform="matrix(0.07469135802469135,0,0,0.07469135802469135,61.02283950617283,0)" xlink:href="#ak"/><use transform="matrix(0.07469135802469135,0,0,0.07469135802469135,75.9611111111111,0)" xlink:href="#al"/><use transform="matrix(0.07469135802469135,0,0,0.07469135802469135,89.40555555555554,0)" xlink:href="#am"/><use transform="matrix(0.07469135802469135,0,0,0.07469135802469135,104.34382716049382,0)" xlink:href="#am"/><use transform="matrix(0.07469135802469135,0,0,0.07469135802469135,119.28209876543207,0)" xlink:href="#at"/><use transform="matrix(0.07469135802469135,0,0,0.07469135802469135,132.72654320987652,0)" xlink:href="#ax"/><use transform="matrix(0.07469135802469135,0,0,0.07469135802469135,147.6648148148148,0)" xlink:href="#am"/><use transform="matrix(0.07469135802469135,0,0,0.07469135802469135,162.60308641975308,0)" xlink:href="#am"/><use transform="matrix(0.07469135802469135,0,0,0.07469135802469135,177.54135802469136,0)" xlink:href="#av"/><use transform="matrix(0.07469135802469135,0,0,0.07469135802469135,183.441975308642,0)" xlink:href="#aB"/><use transform="matrix(0.07469135802469135,0,0,0.07469135802469135,198.3802469135803,0)" xlink:href="#aA"/><use transform="matrix(0.07469135802469135,0,0,0.07469135802469135,205.8493827160494,0)" xlink:href="#as"/><use transform="matrix(0.07469135802469135,0,0,0.07469135802469135,220.78765432098768,0)" xlink:href="#aq"/><use transform="matrix(0.07469135802469135,0,0,0.07469135802469135,229.67592592592595,0)" xlink:href="#aB"/></g><g id="p"><use transform="matrix(0.07469135802469135,0,0,0.07469135802469135,0,0)" xlink:href="#ag"/><use transform="matrix(0.07469135802469135,0,0,0.07469135802469135,19.34506172839506,0)" xlink:href="#ah"/><use transform="matrix(0.07469135802469135,0,0,0.07469135802469135,34.28333333333333,0)" xlink:href="#ai"/><use transform="matrix(0.07469135802469135,0,0,0.07469135802469135,40.18395061728394,0)" xlink:href="#ai"/><use transform="matrix(0.07469135802469135,0,0,0.07469135802469135,46.08456790123456,0)" xlink:href="#aj"/><use transform="matrix(0.07469135802469135,0,0,0.07469135802469135,61.02283950617283,0)" xlink:href="#ak"/><use transform="matrix(0.07469135802469135,0,0,0.07469135802469135,75.9611111111111,0)" xlink:href="#al"/><use transform="matrix(0.07469135802469135,0,0,0.07469135802469135,89.40555555555554,0)" xlink:href="#am"/><use transform="matrix(0.07469135802469135,0,0,0.07469135802469135,104.34382716049382,0)" xlink:href="#am"/><use transform="matrix(0.07469135802469135,0,0,0.07469135802469135,119.28209876543207,0)" xlink:href="#at"/><use transform="matrix(0.07469135802469135,0,0,0.07469135802469135,132.72654320987652,0)" xlink:href="#au"/><use transform="matrix(0.07469135802469135,0,0,0.07469135802469135,147.6648148148148,0)" xlink:href="#am"/><use transform="matrix(0.07469135802469135,0,0,0.07469135802469135,162.60308641975308,0)" xlink:href="#am"/><use transform="matrix(0.07469135802469135,0,0,0.07469135802469135,177.54135802469136,0)" xlink:href="#av"/><use transform="matrix(0.07469135802469135,0,0,0.07469135802469135,183.441975308642,0)" xlink:href="#aB"/><use transform="matrix(0.07469135802469135,0,0,0.07469135802469135,198.3802469135803,0)" xlink:href="#aA"/><use transform="matrix(0.07469135802469135,0,0,0.07469135802469135,205.8493827160494,0)" xlink:href="#as"/><use transform="matrix(0.07469135802469135,0,0,0.07469135802469135,220.78765432098768,0)" xlink:href="#aq"/><use transform="matrix(0.07469135802469135,0,0,0.07469135802469135,229.67592592592595,0)" xlink:href="#aB"/></g><path fill="#c92d39" d="M-5 72V49h209v23H-5" id="aC"/><path fill="#c92d39" d="M96-169c-40 0-48 33-48 73s9 75 48 75c24 0 41-14 43-38l32 2c-6 37-31 61-74 61-59 0-76-41-82-99-10-93 101-131 147-64 4 7 5 14 7 22l-32 3c-4-21-16-35-41-35" id="aD"/><path fill="#c92d39" d="M106-169C34-169 62-67 57 0H25v-261h32l-1 103c12-21 28-36 61-36 89 0 53 116 60 194h-32v-121c2-32-8-49-39-48" id="aE"/><path fill="#c92d39" d="M114-163C36-179 61-72 57 0H25l-1-190h30c1 12-1 29 2 39 6-27 23-49 58-41v29" id="aF"/><path fill="#c92d39" d="M177-190C167-65 218 103 67 71c-23-6-38-20-44-43l32-5c15 47 100 32 89-28v-30C133-14 115 1 83 1 29 1 15-40 15-95c0-56 16-97 71-98 29-1 48 16 59 35 1-10 0-23 2-32h30zM94-22c36 0 50-32 50-73 0-42-14-75-50-75-39 0-46 34-46 75s6 73 46 73" id="aG"/><path fill="#c92d39" d="M100-194c63 0 86 42 84 106H49c0 40 14 67 53 68 26 1 43-12 49-29l28 8c-11 28-37 45-77 45C44 4 14-33 15-96c1-61 26-98 85-98zm52 81c6-60-76-77-97-28-3 7-6 17-6 28h103" id="aH"/><g id="q"><use transform="matrix(0.07469135802469135,0,0,0.07469135802469135,0,0)" xlink:href="#ag"/><use transform="matrix(0.07469135802469135,0,0,0.07469135802469135,19.34506172839506,0)" xlink:href="#ah"/><use transform="matrix(0.07469135802469135,0,0,0.07469135802469135,34.28333333333333,0)" xlink:href="#ai"/><use transform="matrix(0.07469135802469135,0,0,0.07469135802469135,40.18395061728394,0)" xlink:href="#ai"/><use transform="matrix(0.07469135802469135,0,0,0.07469135802469135,46.08456790123456,0)" xlink:href="#aj"/><use transform="matrix(0.07469135802469135,0,0,0.07469135802469135,61.02283950617283,0)" xlink:href="#ak"/><use transform="matrix(0.07469135802469135,0,0,0.07469135802469135,75.9611111111111,0)" xlink:href="#al"/><use transform="matrix(0.07469135802469135,0,0,0.07469135802469135,89.40555555555554,0)" xlink:href="#aC"/><use transform="matrix(0.07469135802469135,0,0,0.07469135802469135,104.34382716049382,0)" xlink:href="#aD"/><use transform="matrix(0.07469135802469135,0,0,0.07469135802469135,117.78827160493825,0)" xlink:href="#aE"/><use transform="matrix(0.07469135802469135,0,0,0.07469135802469135,132.72654320987652,0)" xlink:href="#ah"/><use transform="matrix(0.07469135802469135,0,0,0.07469135802469135,147.6648148148148,0)" xlink:href="#aF"/><use transform="matrix(0.07469135802469135,0,0,0.07469135802469135,156.55308641975307,0)" xlink:href="#aG"/><use transform="matrix(0.07469135802469135,0,0,0.07469135802469135,171.49135802469135,0)" xlink:href="#aH"/><use transform="matrix(0.07469135802469135,0,0,0.07469135802469135,186.42962962962963,0)" xlink:href="#am"/><use transform="matrix(0.07469135802469135,0,0,0.07469135802469135,201.3679012345679,0)" xlink:href="#am"/><use transform="matrix(0.07469135802469135,0,0,0.07469135802469135,216.30617283950622,0)" xlink:href="#ay"/><use transform="matrix(0.07469135802469135,0,0,0.07469135802469135,223.77530864197533,0)" xlink:href="#av"/><use transform="matrix(0.07469135802469135,0,0,0.07469135802469135,229.67592592592595,0)" xlink:href="#az"/><use transform="matrix(0.07469135802469135,0,0,0.07469135802469135,235.57654320987658,0)" xlink:href="#aA"/><use transform="matrix(0.07469135802469135,0,0,0.07469135802469135,243.04567901234572,0)" xlink:href="#as"/><use transform="matrix(0.07469135802469135,0,0,0.07469135802469135,257.983950617284,0)" xlink:href="#aq"/></g><g id="r"><use transform="matrix(0.07469135802469135,0,0,0.07469135802469135,0,0)" xlink:href="#ag"/><use transform="matrix(0.07469135802469135,0,0,0.07469135802469135,19.34506172839506,0)" xlink:href="#ah"/><use transform="matrix(0.07469135802469135,0,0,0.07469135802469135,34.28333333333333,0)" xlink:href="#ai"/><use transform="matrix(0.07469135802469135,0,0,0.07469135802469135,40.18395061728394,0)" xlink:href="#ai"/><use transform="matrix(0.07469135802469135,0,0,0.07469135802469135,46.08456790123456,0)" xlink:href="#aj"/><use transform="matrix(0.07469135802469135,0,0,0.07469135802469135,61.02283950617283,0)" xlink:href="#ak"/><use transform="matrix(0.07469135802469135,0,0,0.07469135802469135,75.9611111111111,0)" xlink:href="#al"/><use transform="matrix(0.07469135802469135,0,0,0.07469135802469135,89.40555555555554,0)" xlink:href="#aC"/><use transform="matrix(0.07469135802469135,0,0,0.07469135802469135,104.34382716049382,0)" xlink:href="#aD"/><use transform="matrix(0.07469135802469135,0,0,0.07469135802469135,117.78827160493825,0)" xlink:href="#aE"/><use transform="matrix(0.07469135802469135,0,0,0.07469135802469135,132.72654320987652,0)" xlink:href="#ah"/><use transform="matrix(0.07469135802469135,0,0,0.07469135802469135,147.6648148148148,0)" xlink:href="#aF"/><use transform="matrix(0.07469135802469135,0,0,0.07469135802469135,156.55308641975307,0)" xlink:href="#aG"/><use transform="matrix(0.07469135802469135,0,0,0.07469135802469135,171.49135802469135,0)" xlink:href="#aH"/><use transform="matrix(0.07469135802469135,0,0,0.07469135802469135,186.42962962962963,0)" xlink:href="#am"/><use transform="matrix(0.07469135802469135,0,0,0.07469135802469135,201.3679012345679,0)" xlink:href="#am"/></g><path fill="#0c7cba" d="M143 0L79-87 56-68V0H24v-261h32v163l83-92h37l-77 82L181 0h-38" id="aI"/><g id="s"><use transform="matrix(0.07469135802469135,0,0,0.07469135802469135,0,0)" xlink:href="#an"/><use transform="matrix(0.07469135802469135,0,0,0.07469135802469135,13.444444444444443,0)" xlink:href="#av"/><use transform="matrix(0.07469135802469135,0,0,0.07469135802469135,19.34506172839506,0)" xlink:href="#aB"/><use transform="matrix(0.07469135802469135,0,0,0.07469135802469135,34.28333333333333,0)" xlink:href="#aI"/></g><path fill="#c92d39" d="M135-143c-3-34-86-38-87 0 15 53 115 12 119 90S17 21 10-45l28-5c4 36 97 45 98 0-10-56-113-15-118-90-4-57 82-63 122-42 12 7 21 19 24 35" id="aJ"/><path fill="#c92d39" d="M59-47c-2 24 18 29 38 22v24C64 9 27 4 27-40v-127H5v-23h24l9-43h21v43h35v23H59v120" id="aK"/><path fill="#c92d39" d="M84 4C-5 8 30-112 23-190h32v120c0 31 7 50 39 49 72-2 45-101 50-169h31l1 190h-30c-1-10 1-25-2-33-11 22-28 36-60 37" id="aL"/><g id="t"><use transform="matrix(0.07469135802469135,0,0,0.07469135802469135,0,0)" xlink:href="#ag"/><use transform="matrix(0.07469135802469135,0,0,0.07469135802469135,19.34506172839506,0)" xlink:href="#ah"/><use transform="matrix(0.07469135802469135,0,0,0.07469135802469135,34.28333333333333,0)" xlink:href="#ai"/><use transform="matrix(0.07469135802469135,0,0,0.07469135802469135,40.18395061728394,0)" xlink:href="#ai"/><use transform="matrix(0.07469135802469135,0,0,0.07469135802469135,46.08456790123456,0)" xlink:href="#aj"/><use transform="matrix(0.07469135802469135,0,0,0.07469135802469135,61.02283950617283,0)" xlink:href="#ak"/><use transform="matrix(0.07469135802469135,0,0,0.07469135802469135,75.9611111111111,0)" xlink:href="#al"/><use transform="matrix(0.07469135802469135,0,0,0.07469135802469135,89.40555555555554,0)" xlink:href="#aC"/><use transform="matrix(0.07469135802469135,0,0,0.07469135802469135,104.34382716049382,0)" xlink:href="#aD"/><use transform="matrix(0.07469135802469135,0,0,0.07469135802469135,117.78827160493825,0)" xlink:href="#aE"/><use transform="matrix(0.07469135802469135,0,0,0.07469135802469135,132.72654320987652,0)" xlink:href="#ah"/><use transform="matrix(0.07469135802469135,0,0,0.07469135802469135,147.6648148148148,0)" xlink:href="#aF"/><use transform="matrix(0.07469135802469135,0,0,0.07469135802469135,156.55308641975307,0)" xlink:href="#aG"/><use transform="matrix(0.07469135802469135,0,0,0.07469135802469135,171.49135802469135,0)" xlink:href="#aH"/><use transform="matrix(0.07469135802469135,0,0,0.07469135802469135,186.42962962962963,0)" xlink:href="#aJ"/><use transform="matrix(0.07469135802469135,0,0,0.07469135802469135,199.8740740740741,0)" xlink:href="#aK"/><use transform="matrix(0.07469135802469135,0,0,0.07469135802469135,207.34320987654326,0)" xlink:href="#ah"/><use transform="matrix(0.07469135802469135,0,0,0.07469135802469135,222.2814814814815,0)" xlink:href="#aK"/><use transform="matrix(0.07469135802469135,0,0,0.07469135802469135,229.75061728395065,0)" xlink:href="#aL"/><use transform="matrix(0.07469135802469135,0,0,0.07469135802469135,244.68888888888893,0)" xlink:href="#aJ"/></g><path fill="#0c7cba" d="M141-36C126-15 110 5 73 4 37 3 15-17 15-53c-1-64 63-63 125-63 3-35-9-54-41-54-24 1-41 7-42 31l-33-3c5-37 33-52 76-52 45 0 72 20 72 64v82c-1 20 7 32 28 27v20c-31 9-61-2-59-35zM48-53c0 20 12 33 32 33 41-3 63-29 60-74-43 2-92-5-92 41" id="aM"/><path fill="#0c7cba" d="M115-194c53 0 69 39 70 98 0 66-23 100-70 100C84 3 66-7 56-30L54 0H23l1-261h32v101c10-23 28-34 59-34zm-8 174c40 0 45-34 45-75 0-40-5-75-45-74-42 0-51 32-51 76 0 43 10 73 51 73" id="aN"/><g id="u"><use transform="matrix(0.07469135802469135,0,0,0.07469135802469135,0,0)" xlink:href="#am"/><use transform="matrix(0.07469135802469135,0,0,0.07469135802469135,14.938271604938269,0)" xlink:href="#am"/><use transform="matrix(0.07469135802469135,0,0,0.07469135802469135,29.876543209876537,0)" xlink:href="#aA"/><use transform="matrix(0.07469135802469135,0,0,0.07469135802469135,37.34567901234567,0)" xlink:href="#aM"/><use transform="matrix(0.07469135802469135,0,0,0.07469135802469135,52.283950617283935,0)" xlink:href="#aN"/><use transform="matrix(0.07469135802469135,0,0,0.07469135802469135,67.2222222222222,0)" xlink:href="#az"/><use transform="matrix(0.07469135802469135,0,0,0.07469135802469135,73.12283950617282,0)" xlink:href="#as"/></g><g id="v"><use transform="matrix(0.07469135802469135,0,0,0.07469135802469135,0,0)" xlink:href="#ag"/><use transform="matrix(0.07469135802469135,0,0,0.07469135802469135,19.34506172839506,0)" xlink:href="#ah"/><use transform="matrix(0.07469135802469135,0,0,0.07469135802469135,34.28333333333333,0)" xlink:href="#ai"/><use transform="matrix(0.07469135802469135,0,0,0.07469135802469135,40.18395061728394,0)" xlink:href="#ai"/><use transform="matrix(0.07469135802469135,0,0,0.07469135802469135,46.08456790123456,0)" xlink:href="#aj"/><use transform="matrix(0.07469135802469135,0,0,0.07469135802469135,61.02283950617283,0)" xlink:href="#ak"/><use transform="matrix(0.07469135802469135,0,0,0.07469135802469135,75.9611111111111,0)" xlink:href="#al"/><use transform="matrix(0.07469135802469135,0,0,0.07469135802469135,89.40555555555554,0)" xlink:href="#aC"/><use transform="matrix(0.07469135802469135,0,0,0.07469135802469135,104.34382716049382,0)" xlink:href="#aD"/><use transform="matrix(0.07469135802469135,0,0,0.07469135802469135,117.78827160493825,0)" xlink:href="#aE"/><use transform="matrix(0.07469135802469135,0,0,0.07469135802469135,132.72654320987652,0)" xlink:href="#ah"/><use transform="matrix(0.07469135802469135,0,0,0.07469135802469135,147.6648148148148,0)" xlink:href="#aF"/><use transform="matrix(0.07469135802469135,0,0,0.07469135802469135,156.55308641975307,0)" xlink:href="#aG"/><use transform="matrix(0.07469135802469135,0,0,0.07469135802469135,171.49135802469135,0)" xlink:href="#aH"/><use transform="matrix(0.07469135802469135,0,0,0.07469135802469135,186.42962962962963,0)" xlink:href="#aJ"/><use transform="matrix(0.07469135802469135,0,0,0.07469135802469135,199.8740740740741,0)" xlink:href="#aK"/><use transform="matrix(0.07469135802469135,0,0,0.07469135802469135,207.34320987654326,0)" xlink:href="#ah"/><use transform="matrix(0.07469135802469135,0,0,0.07469135802469135,222.2814814814815,0)" xlink:href="#aK"/><use transform="matrix(0.07469135802469135,0,0,0.07469135802469135,229.75061728395065,0)" xlink:href="#aL"/><use transform="matrix(0.07469135802469135,0,0,0.07469135802469135,244.68888888888893,0)" xlink:href="#aJ"/></g><g id="w"><use transform="matrix(0.07469135802469135,0,0,0.07469135802469135,0,0)" xlink:href="#am"/><use transform="matrix(0.07469135802469135,0,0,0.07469135802469135,14.938271604938269,0)" xlink:href="#am"/><use transform="matrix(0.07469135802469135,0,0,0.07469135802469135,29.876543209876537,0)" xlink:href="#av"/><use transform="matrix(0.07469135802469135,0,0,0.07469135802469135,35.777160493827154,0)" xlink:href="#aB"/><use transform="matrix(0.07469135802469135,0,0,0.07469135802469135,50.71543209876541,0)" xlink:href="#aA"/><use transform="matrix(0.07469135802469135,0,0,0.07469135802469135,58.18456790123455,0)" xlink:href="#as"/><use transform="matrix(0.07469135802469135,0,0,0.07469135802469135,73.12283950617282,0)" xlink:href="#aq"/><use transform="matrix(0.07469135802469135,0,0,0.07469135802469135,82.01111111111109,0)" xlink:href="#aB"/></g><path fill="#5e5139" d="M177-190C167-65 218 103 67 71c-23-6-38-20-44-43l32-5c15 47 100 32 89-28v-30C133-14 115 1 83 1 29 1 15-40 15-95c0-56 16-97 71-98 29-1 48 16 59 35 1-10 0-23 2-32h30zM94-22c36 0 50-32 50-73 0-42-14-75-50-75-39 0-46 34-46 75s6 73 46 73" id="aO"/><path fill="#5e5139" d="M30-248c118-7 216 8 213 122C240-48 200 0 122 0H30v-248zM63-27c89 8 146-16 146-99s-60-101-146-95v194" id="aP"/><path fill="#5e5139" d="M160-131c35 5 61 23 61 61C221 17 115-2 30 0v-248c76 3 177-17 177 60 0 33-19 50-47 57zm-97-11c50-1 110 9 110-42 0-47-63-36-110-37v79zm0 115c55-2 124 14 124-45 0-56-70-42-124-44v89" id="aQ"/><g id="x"><use transform="matrix(0.07469135802469135,0,0,0.07469135802469135,0,0)" xlink:href="#L"/><use transform="matrix(0.07469135802469135,0,0,0.07469135802469135,22.33271604938271,0)" xlink:href="#O"/><use transform="matrix(0.07469135802469135,0,0,0.07469135802469135,37.270987654320976,0)" xlink:href="#U"/><use transform="matrix(0.07469135802469135,0,0,0.07469135802469135,52.20925925925924,0)" xlink:href="#aO"/><use transform="matrix(0.07469135802469135,0,0,0.07469135802469135,67.1475308641975,0)" xlink:href="#O"/><use transform="matrix(0.07469135802469135,0,0,0.07469135802469135,82.08580246913577,0)" xlink:href="#aP"/><use transform="matrix(0.07469135802469135,0,0,0.07469135802469135,101.43086419753082,0)" xlink:href="#aQ"/></g><path fill="#5e5139" d="M143 4C61 4 22-44 18-125c-5-107 100-154 193-111 17 8 29 25 37 43l-32 9c-13-25-37-40-76-40-61 0-88 39-88 99 0 61 29 100 91 101 35 0 62-11 79-27v-45h-74v-28h105v86C228-13 192 4 143 4" id="aR"/><g id="y"><use transform="matrix(0.07469135802469135,0,0,0.07469135802469135,0,0)" xlink:href="#aR"/><use transform="matrix(0.07469135802469135,0,0,0.07469135802469135,20.913580246913575,0)" xlink:href="#Q"/><use transform="matrix(0.07469135802469135,0,0,0.07469135802469135,29.801851851851843,0)" xlink:href="#X"/><use transform="matrix(0.07469135802469135,0,0,0.07469135802469135,44.740123456790116,0)" xlink:href="#Y"/><use transform="matrix(0.07469135802469135,0,0,0.07469135802469135,52.20925925925925,0)" xlink:href="#X"/><use transform="matrix(0.07469135802469135,0,0,0.07469135802469135,67.14753086419752,0)" xlink:href="#U"/><use transform="matrix(0.07469135802469135,0,0,0.07469135802469135,82.08580246913579,0)" xlink:href="#X"/></g><path fill="#c92d39" d="M24-231v-30h32v30H24zM24 0v-190h32V0H24" id="aS"/><path fill="#c92d39" d="M117-194c89-4 53 116 60 194h-32v-121c0-31-8-49-39-48C34-167 62-67 57 0H25l-1-190h30c1 10-1 24 2 32 11-22 29-35 61-36" id="aT"/><path fill="#0c7cba" d="M24-231v-30h32v30H24zM-9 49c24 4 33-6 33-30v-209h32V24c2 40-23 58-65 49V49" id="aU"/><g id="z"><use transform="matrix(0.07469135802469135,0,0,0.07469135802469135,0,0)" xlink:href="#ag"/><use transform="matrix(0.07469135802469135,0,0,0.07469135802469135,19.34506172839506,0)" xlink:href="#ah"/><use transform="matrix(0.07469135802469135,0,0,0.07469135802469135,34.28333333333333,0)" xlink:href="#ai"/><use transform="matrix(0.07469135802469135,0,0,0.07469135802469135,40.18395061728394,0)" xlink:href="#ai"/><use transform="matrix(0.07469135802469135,0,0,0.07469135802469135,46.08456790123456,0)" xlink:href="#aj"/><use transform="matrix(0.07469135802469135,0,0,0.07469135802469135,61.02283950617283,0)" xlink:href="#ak"/><use transform="matrix(0.07469135802469135,0,0,0.07469135802469135,75.9611111111111,0)" xlink:href="#al"/><use transform="matrix(0.07469135802469135,0,0,0.07469135802469135,89.40555555555554,0)" xlink:href="#aC"/><use transform="matrix(0.07469135802469135,0,0,0.07469135802469135,104.34382716049382,0)" xlink:href="#ai"/><use transform="matrix(0.07469135802469135,0,0,0.07469135802469135,110.24444444444441,0)" xlink:href="#ak"/><use transform="matrix(0.07469135802469135,0,0,0.07469135802469135,125.18271604938268,0)" xlink:href="#aD"/><use transform="matrix(0.07469135802469135,0,0,0.07469135802469135,138.62716049382712,0)" xlink:href="#ah"/><use transform="matrix(0.07469135802469135,0,0,0.07469135802469135,153.5654320987654,0)" xlink:href="#aK"/><use transform="matrix(0.07469135802469135,0,0,0.07469135802469135,161.03456790123454,0)" xlink:href="#aS"/><use transform="matrix(0.07469135802469135,0,0,0.07469135802469135,166.93518518518516,0)" xlink:href="#ak"/><use transform="matrix(0.07469135802469135,0,0,0.07469135802469135,181.8734567901234,0)" xlink:href="#aT"/><use transform="matrix(0.07469135802469135,0,0,0.07469135802469135,196.81172839506172,0)" xlink:href="#aC"/><use transform="matrix(0.07469135802469135,0,0,0.07469135802469135,211.75,0)" xlink:href="#aD"/><use transform="matrix(0.07469135802469135,0,0,0.07469135802469135,225.19444444444443,0)" xlink:href="#aE"/><use transform="matrix(0.07469135802469135,0,0,0.07469135802469135,240.13271604938274,0)" xlink:href="#ah"/><use transform="matrix(0.07469135802469135,0,0,0.07469135802469135,255.07098765432102,0)" xlink:href="#aF"/><use transform="matrix(0.07469135802469135,0,0,0.07469135802469135,263.9592592592593,0)" xlink:href="#aG"/><use transform="matrix(0.07469135802469135,0,0,0.07469135802469135,278.89753086419756,0)" xlink:href="#aH"/><use transform="matrix(0.07469135802469135,0,0,0.07469135802469135,293.83580246913584,0)" xlink:href="#aJ"/><use transform="matrix(0.07469135802469135,0,0,0.07469135802469135,307.28024691358036,0)" xlink:href="#aK"/><use transform="matrix(0.07469135802469135,0,0,0.07469135802469135,314.7493827160494,0)" xlink:href="#ah"/><use transform="matrix(0.07469135802469135,0,0,0.07469135802469135,329.6876543209877,0)" xlink:href="#aK"/><use transform="matrix(0.07469135802469135,0,0,0.07469135802469135,337.1567901234568,0)" xlink:href="#aL"/><use transform="matrix(0.07469135802469135,0,0,0.07469135802469135,352.0950617283951,0)" xlink:href="#aJ"/><use transform="matrix(0.07469135802469135,0,0,0.07469135802469135,365.53950617283954,0)" xlink:href="#am"/><use transform="matrix(0.07469135802469135,0,0,0.07469135802469135,380.4777777777779,0)" xlink:href="#am"/><use transform="matrix(0.07469135802469135,0,0,0.07469135802469135,395.4160493827161,0)" xlink:href="#aU"/><use transform="matrix(0.07469135802469135,0,0,0.07469135802469135,401.3166666666667,0)" xlink:href="#ao"/><use transform="matrix(0.07469135802469135,0,0,0.07469135802469135,416.254938271605,0)" xlink:href="#av"/><use transform="matrix(0.07469135802469135,0,0,0.07469135802469135,422.1555555555556,0)" xlink:href="#aB"/></g><g id="A"><use transform="matrix(0.07469135802469135,0,0,0.07469135802469135,0,0)" xlink:href="#ag"/><use transform="matrix(0.07469135802469135,0,0,0.07469135802469135,19.34506172839506,0)" xlink:href="#ah"/><use transform="matrix(0.07469135802469135,0,0,0.07469135802469135,34.28333333333333,0)" xlink:href="#ai"/><use transform="matrix(0.07469135802469135,0,0,0.07469135802469135,40.18395061728394,0)" xlink:href="#ai"/><use transform="matrix(0.07469135802469135,0,0,0.07469135802469135,46.08456790123456,0)" xlink:href="#aj"/><use transform="matrix(0.07469135802469135,0,0,0.07469135802469135,61.02283950617283,0)" xlink:href="#ak"/><use transform="matrix(0.07469135802469135,0,0,0.07469135802469135,75.9611111111111,0)" xlink:href="#al"/><use transform="matrix(0.07469135802469135,0,0,0.07469135802469135,89.40555555555554,0)" xlink:href="#aC"/><use transform="matrix(0.07469135802469135,0,0,0.07469135802469135,104.34382716049382,0)" xlink:href="#ai"/><use transform="matrix(0.07469135802469135,0,0,0.07469135802469135,110.24444444444441,0)" xlink:href="#ak"/><use transform="matrix(0.07469135802469135,0,0,0.07469135802469135,125.18271604938268,0)" xlink:href="#aD"/><use transform="matrix(0.07469135802469135,0,0,0.07469135802469135,138.62716049382712,0)" xlink:href="#ah"/><use transform="matrix(0.07469135802469135,0,0,0.07469135802469135,153.5654320987654,0)" xlink:href="#aK"/><use transform="matrix(0.07469135802469135,0,0,0.07469135802469135,161.03456790123454,0)" xlink:href="#aS"/><use transform="matrix(0.07469135802469135,0,0,0.07469135802469135,166.93518518518516,0)" xlink:href="#ak"/><use transform="matrix(0.07469135802469135,0,0,0.07469135802469135,181.8734567901234,0)" xlink:href="#aT"/><use transform="matrix(0.07469135802469135,0,0,0.07469135802469135,196.81172839506172,0)" xlink:href="#am"/><use transform="matrix(0.07469135802469135,0,0,0.07469135802469135,211.75,0)" xlink:href="#am"/><use transform="matrix(0.07469135802469135,0,0,0.07469135802469135,226.68827160493828,0)" xlink:href="#an"/><use transform="matrix(0.07469135802469135,0,0,0.07469135802469135,240.13271604938274,0)" xlink:href="#ao"/><use transform="matrix(0.07469135802469135,0,0,0.07469135802469135,255.07098765432102,0)" xlink:href="#ap"/><use transform="matrix(0.07469135802469135,0,0,0.07469135802469135,270.0092592592593,0)" xlink:href="#aq"/><use transform="matrix(0.07469135802469135,0,0,0.07469135802469135,278.89753086419756,0)" xlink:href="#ar"/><use transform="matrix(0.07469135802469135,0,0,0.07469135802469135,292.341975308642,0)" xlink:href="#as"/></g><g id="B"><use transform="matrix(0.07469135802469135,0,0,0.07469135802469135,0,0)" xlink:href="#ag"/><use transform="matrix(0.07469135802469135,0,0,0.07469135802469135,19.34506172839506,0)" xlink:href="#ah"/><use transform="matrix(0.07469135802469135,0,0,0.07469135802469135,34.28333333333333,0)" xlink:href="#ai"/><use transform="matrix(0.07469135802469135,0,0,0.07469135802469135,40.18395061728394,0)" xlink:href="#ai"/><use transform="matrix(0.07469135802469135,0,0,0.07469135802469135,46.08456790123456,0)" xlink:href="#aj"/><use transform="matrix(0.07469135802469135,0,0,0.07469135802469135,61.02283950617283,0)" xlink:href="#ak"/><use transform="matrix(0.07469135802469135,0,0,0.07469135802469135,75.9611111111111,0)" xlink:href="#al"/><use transform="matrix(0.07469135802469135,0,0,0.07469135802469135,89.40555555555554,0)" xlink:href="#aC"/><use transform="matrix(0.07469135802469135,0,0,0.07469135802469135,104.34382716049382,0)" xlink:href="#ai"/><use transform="matrix(0.07469135802469135,0,0,0.07469135802469135,110.24444444444441,0)" xlink:href="#ak"/><use transform="matrix(0.07469135802469135,0,0,0.07469135802469135,125.18271604938268,0)" xlink:href="#aD"/><use transform="matrix(0.07469135802469135,0,0,0.07469135802469135,138.62716049382712,0)" xlink:href="#ah"/><use transform="matrix(0.07469135802469135,0,0,0.07469135802469135,153.5654320987654,0)" xlink:href="#aK"/><use transform="matrix(0.07469135802469135,0,0,0.07469135802469135,161.03456790123454,0)" xlink:href="#aS"/><use transform="matrix(0.07469135802469135,0,0,0.07469135802469135,166.93518518518516,0)" xlink:href="#ak"/><use transform="matrix(0.07469135802469135,0,0,0.07469135802469135,181.8734567901234,0)" xlink:href="#aT"/><use transform="matrix(0.07469135802469135,0,0,0.07469135802469135,196.81172839506172,0)" xlink:href="#aC"/></g><g id="C"><use transform="matrix(0.07469135802469135,0,0,0.07469135802469135,0,0)" xlink:href="#aD"/><use transform="matrix(0.07469135802469135,0,0,0.07469135802469135,13.444444444444443,0)" xlink:href="#aE"/><use transform="matrix(0.07469135802469135,0,0,0.07469135802469135,28.38271604938271,0)" xlink:href="#ah"/><use transform="matrix(0.07469135802469135,0,0,0.07469135802469135,43.32098765432098,0)" xlink:href="#aF"/><use transform="matrix(0.07469135802469135,0,0,0.07469135802469135,52.20925925925925,0)" xlink:href="#aG"/><use transform="matrix(0.07469135802469135,0,0,0.07469135802469135,67.14753086419752,0)" xlink:href="#aH"/><use transform="matrix(0.07469135802469135,0,0,0.07469135802469135,82.08580246913579,0)" xlink:href="#aJ"/><use transform="matrix(0.07469135802469135,0,0,0.07469135802469135,95.53024691358023,0)" xlink:href="#aK"/><use transform="matrix(0.07469135802469135,0,0,0.07469135802469135,102.99938271604937,0)" xlink:href="#ah"/><use transform="matrix(0.07469135802469135,0,0,0.07469135802469135,117.93765432098763,0)" xlink:href="#aK"/><use transform="matrix(0.07469135802469135,0,0,0.07469135802469135,125.40679012345677,0)" xlink:href="#aL"/><use transform="matrix(0.07469135802469135,0,0,0.07469135802469135,140.34506172839505,0)" xlink:href="#aJ"/><use transform="matrix(0.07469135802469135,0,0,0.07469135802469135,153.78950617283948,0)" xlink:href="#am"/><use transform="matrix(0.07469135802469135,0,0,0.07469135802469135,168.72777777777776,0)" xlink:href="#am"/><use transform="matrix(0.07469135802469135,0,0,0.07469135802469135,183.66604938271604,0)" xlink:href="#an"/><use transform="matrix(0.07469135802469135,0,0,0.07469135802469135,197.1104938271605,0)" xlink:href="#av"/><use transform="matrix(0.07469135802469135,0,0,0.07469135802469135,203.01111111111112,0)" xlink:href="#aB"/><use transform="matrix(0.07469135802469135,0,0,0.07469135802469135,217.94938271604943,0)" xlink:href="#aI"/></g><g id="D"><use transform="matrix(0.07469135802469135,0,0,0.07469135802469135,0,0)" xlink:href="#ag"/><use transform="matrix(0.07469135802469135,0,0,0.07469135802469135,19.34506172839506,0)" xlink:href="#ah"/><use transform="matrix(0.07469135802469135,0,0,0.07469135802469135,34.28333333333333,0)" xlink:href="#ai"/><use transform="matrix(0.07469135802469135,0,0,0.07469135802469135,40.18395061728394,0)" xlink:href="#ai"/><use transform="matrix(0.07469135802469135,0,0,0.07469135802469135,46.08456790123456,0)" xlink:href="#aj"/><use transform="matrix(0.07469135802469135,0,0,0.07469135802469135,61.02283950617283,0)" xlink:href="#ak"/><use transform="matrix(0.07469135802469135,0,0,0.07469135802469135,75.9611111111111,0)" xlink:href="#al"/><use transform="matrix(0.07469135802469135,0,0,0.07469135802469135,89.40555555555554,0)" xlink:href="#am"/><use transform="matrix(0.07469135802469135,0,0,0.07469135802469135,104.34382716049382,0)" xlink:href="#am"/><use transform="matrix(0.07469135802469135,0,0,0.07469135802469135,119.28209876543207,0)" xlink:href="#at"/><use transform="matrix(0.07469135802469135,0,0,0.07469135802469135,132.72654320987652,0)" xlink:href="#ax"/><use transform="matrix(0.07469135802469135,0,0,0.07469135802469135,147.6648148148148,0)" xlink:href="#am"/><use transform="matrix(0.07469135802469135,0,0,0.07469135802469135,162.60308641975308,0)" xlink:href="#am"/><use transform="matrix(0.07469135802469135,0,0,0.07469135802469135,177.54135802469136,0)" xlink:href="#av"/><use transform="matrix(0.07469135802469135,0,0,0.07469135802469135,183.441975308642,0)" xlink:href="#aw"/></g><g id="E"><use transform="matrix(0.07469135802469135,0,0,0.07469135802469135,0,0)" xlink:href="#ag"/><use transform="matrix(0.07469135802469135,0,0,0.07469135802469135,19.34506172839506,0)" xlink:href="#ah"/><use transform="matrix(0.07469135802469135,0,0,0.07469135802469135,34.28333333333333,0)" xlink:href="#ai"/><use transform="matrix(0.07469135802469135,0,0,0.07469135802469135,40.18395061728394,0)" xlink:href="#ai"/><use transform="matrix(0.07469135802469135,0,0,0.07469135802469135,46.08456790123456,0)" xlink:href="#aj"/><use transform="matrix(0.07469135802469135,0,0,0.07469135802469135,61.02283950617283,0)" xlink:href="#ak"/><use transform="matrix(0.07469135802469135,0,0,0.07469135802469135,75.9611111111111,0)" xlink:href="#al"/><use transform="matrix(0.07469135802469135,0,0,0.07469135802469135,89.40555555555554,0)" xlink:href="#aC"/><use transform="matrix(0.07469135802469135,0,0,0.07469135802469135,104.34382716049382,0)" xlink:href="#ai"/><use transform="matrix(0.07469135802469135,0,0,0.07469135802469135,110.24444444444441,0)" xlink:href="#ak"/><use transform="matrix(0.07469135802469135,0,0,0.07469135802469135,125.18271604938268,0)" xlink:href="#aD"/><use transform="matrix(0.07469135802469135,0,0,0.07469135802469135,138.62716049382712,0)" xlink:href="#ah"/><use transform="matrix(0.07469135802469135,0,0,0.07469135802469135,153.5654320987654,0)" xlink:href="#aK"/><use transform="matrix(0.07469135802469135,0,0,0.07469135802469135,161.03456790123454,0)" xlink:href="#aS"/><use transform="matrix(0.07469135802469135,0,0,0.07469135802469135,166.93518518518516,0)" xlink:href="#ak"/><use transform="matrix(0.07469135802469135,0,0,0.07469135802469135,181.8734567901234,0)" xlink:href="#aT"/><use transform="matrix(0.07469135802469135,0,0,0.07469135802469135,196.81172839506172,0)" xlink:href="#am"/><use transform="matrix(0.07469135802469135,0,0,0.07469135802469135,211.75,0)" xlink:href="#am"/><use transform="matrix(0.07469135802469135,0,0,0.07469135802469135,226.68827160493828,0)" xlink:href="#av"/><use transform="matrix(0.07469135802469135,0,0,0.07469135802469135,232.58888888888893,0)" xlink:href="#aw"/></g><path fill="#c92d39" d="M143 0L79-87 56-68V0H24v-261h32v163l83-92h37l-77 82L181 0h-38" id="aV"/><g id="F"><use transform="matrix(0.07469135802469135,0,0,0.07469135802469135,0,0)" xlink:href="#ag"/><use transform="matrix(0.07469135802469135,0,0,0.07469135802469135,19.34506172839506,0)" xlink:href="#ah"/><use transform="matrix(0.07469135802469135,0,0,0.07469135802469135,34.28333333333333,0)" xlink:href="#ai"/><use transform="matrix(0.07469135802469135,0,0,0.07469135802469135,40.18395061728394,0)" xlink:href="#ai"/><use transform="matrix(0.07469135802469135,0,0,0.07469135802469135,46.08456790123456,0)" xlink:href="#aj"/><use transform="matrix(0.07469135802469135,0,0,0.07469135802469135,61.02283950617283,0)" xlink:href="#ak"/><use transform="matrix(0.07469135802469135,0,0,0.07469135802469135,75.9611111111111,0)" xlink:href="#al"/><use transform="matrix(0.07469135802469135,0,0,0.07469135802469135,89.40555555555554,0)" xlink:href="#aC"/><use transform="matrix(0.07469135802469135,0,0,0.07469135802469135,104.34382716049382,0)" xlink:href="#aj"/><use transform="matrix(0.07469135802469135,0,0,0.07469135802469135,119.28209876543207,0)" xlink:href="#ai"/><use transform="matrix(0.07469135802469135,0,0,0.07469135802469135,125.18271604938269,0)" xlink:href="#aS"/><use transform="matrix(0.07469135802469135,0,0,0.07469135802469135,131.08333333333331,0)" xlink:href="#aT"/><use transform="matrix(0.07469135802469135,0,0,0.07469135802469135,146.0216049382716,0)" xlink:href="#aV"/><use transform="matrix(0.07469135802469135,0,0,0.07469135802469135,159.46604938271605,0)" xlink:href="#am"/><use transform="matrix(0.07469135802469135,0,0,0.07469135802469135,174.40432098765433,0)" xlink:href="#am"/></g><g id="G"><use transform="matrix(0.07469135802469135,0,0,0.07469135802469135,0,0)" xlink:href="#ag"/><use transform="matrix(0.07469135802469135,0,0,0.07469135802469135,19.34506172839506,0)" xlink:href="#ah"/><use transform="matrix(0.07469135802469135,0,0,0.07469135802469135,34.28333333333333,0)" xlink:href="#ai"/><use transform="matrix(0.07469135802469135,0,0,0.07469135802469135,40.18395061728394,0)" xlink:href="#ai"/><use transform="matrix(0.07469135802469135,0,0,0.07469135802469135,46.08456790123456,0)" xlink:href="#aj"/><use transform="matrix(0.07469135802469135,0,0,0.07469135802469135,61.02283950617283,0)" xlink:href="#ak"/><use transform="matrix(0.07469135802469135,0,0,0.07469135802469135,75.9611111111111,0)" xlink:href="#al"/><use transform="matrix(0.07469135802469135,0,0,0.07469135802469135,89.40555555555554,0)" xlink:href="#aC"/><use transform="matrix(0.07469135802469135,0,0,0.07469135802469135,104.34382716049382,0)" xlink:href="#aj"/><use transform="matrix(0.07469135802469135,0,0,0.07469135802469135,119.28209876543207,0)" xlink:href="#ai"/><use transform="matrix(0.07469135802469135,0,0,0.07469135802469135,125.18271604938269,0)" xlink:href="#aS"/><use transform="matrix(0.07469135802469135,0,0,0.07469135802469135,131.08333333333331,0)" xlink:href="#aT"/><use transform="matrix(0.07469135802469135,0,0,0.07469135802469135,146.0216049382716,0)" xlink:href="#aV"/><use transform="matrix(0.07469135802469135,0,0,0.07469135802469135,159.46604938271605,0)" xlink:href="#am"/><use transform="matrix(0.07469135802469135,0,0,0.07469135802469135,174.40432098765433,0)" xlink:href="#am"/><use transform="matrix(0.07469135802469135,0,0,0.07469135802469135,189.34259259259258,0)" xlink:href="#ay"/><use transform="matrix(0.07469135802469135,0,0,0.07469135802469135,196.81172839506178,0)" xlink:href="#av"/><use transform="matrix(0.07469135802469135,0,0,0.07469135802469135,202.71234567901237,0)" xlink:href="#az"/><use transform="matrix(0.07469135802469135,0,0,0.07469135802469135,208.612962962963,0)" xlink:href="#aA"/><use transform="matrix(0.07469135802469135,0,0,0.07469135802469135,216.08209876543214,0)" xlink:href="#as"/><use transform="matrix(0.07469135802469135,0,0,0.07469135802469135,231.0203703703704,0)" xlink:href="#aq"/></g></defs></g></svg>